<svg width="27" height="24" viewBox="0 0 27 24" fill="none" xmlns="http://www.w3.org/2000/svg">
<path d="M21.2625 20.3L14.9625 14.7C14.4 15.1 13.7531 15.4167 13.0219 15.65C12.2906 15.8833 11.5125 16 10.6875 16C8.64375 16 6.91425 15.371 5.499 14.113C4.083 12.8543 3.375 11.3167 3.375 9.5C3.375 7.68333 4.083 6.14567 5.499 4.887C6.91425 3.629 8.64375 3 10.6875 3C12.7312 3 14.4611 3.629 15.8771 4.887C17.2924 6.14567 18 7.68333 18 9.5C18 10.2333 17.8687 10.925 17.6062 11.575C17.3438 12.225 16.9875 12.8 16.5375 13.3L22.8656 18.925C23.0719 19.1083 23.175 19.3333 23.175 19.6C23.175 19.8667 23.0625 20.1 22.8375 20.3C22.6312 20.4833 22.3687 20.575 22.05 20.575C21.7313 20.575 21.4688 20.4833 21.2625 20.3ZM10.6875 14C12.0938 14 13.2892 13.5627 14.274 12.688C15.258 11.8127 15.75 10.75 15.75 9.5C15.75 8.25 15.258 7.18733 14.274 6.312C13.2892 5.43733 12.0938 5 10.6875 5C9.28125 5 8.08575 5.43733 7.101 6.312C6.117 7.18733 5.625 8.25 5.625 9.5C5.625 10.75 6.117 11.8127 7.101 12.688C8.08575 13.5627 9.28125 14 10.6875 14Z" fill="#0055AA"/>
</svg>
