<svg width="32" height="30" viewBox="0 0 32 30" fill="none" xmlns="http://www.w3.org/2000/svg">
<path d="M15.8333 0C17.9126 0 19.9715 0.387987 21.8925 1.14181C23.8135 1.89563 25.5589 3.00052 27.0292 4.3934C28.4995 5.78628 29.6657 7.43986 30.4614 9.25975C31.2571 11.0796 31.6667 13.0302 31.6667 15C31.6667 18.9782 29.9985 22.7936 27.0292 25.6066C24.0599 28.4196 20.0326 30 15.8333 30C13.7541 30 11.6952 29.612 9.77418 28.8582C7.85319 28.1044 6.10774 26.9995 4.63748 25.6066C1.66815 22.7936 0 18.9782 0 15C0 11.0218 1.66815 7.20644 4.63748 4.3934C7.6068 1.58035 11.6341 0 15.8333 0ZM9.5 8.565V13.575L20.805 15L9.5 16.425V21.435L25.3333 15L9.5 8.565Z" fill="#0055AA"/>
</svg>
