<svg width="36" height="38" viewBox="0 0 36 38" fill="none" xmlns="http://www.w3.org/2000/svg">
<path d="M35.5604 20.1281L27.6873 28.4406C27.3994 28.7311 27.017 28.8941 26.6188 28.8958C26.3214 28.8953 26.0309 28.8015 25.7842 28.6262C25.5374 28.4509 25.3456 28.2022 25.2331 27.9116C25.1206 27.621 25.0925 27.3016 25.1523 26.994C25.2121 26.6865 25.3571 26.4047 25.569 26.1844L30.874 20.5833H13.4968C13.0991 20.5833 12.7177 20.4165 12.4364 20.1196C12.1552 19.8227 11.9972 19.4199 11.9972 19C11.9972 18.5801 12.1552 18.1773 12.4364 17.8804C12.7177 17.5835 13.0991 17.4167 13.4968 17.4167H30.874L25.569 11.8156C25.2856 11.5191 25.1254 11.1158 25.1237 10.6945C25.1219 10.2732 25.2787 9.86847 25.5596 9.56927C25.8405 9.27007 26.2225 9.10094 26.6215 9.09909C27.0205 9.09723 27.4039 9.2628 27.6873 9.55938L35.5604 17.8719C35.842 18.1721 36 18.5775 36 19C36 19.4225 35.842 19.8279 35.5604 20.1281ZM13.4968 34.8333H2.9993V3.16667H13.4968C13.8946 3.16667 14.276 2.99985 14.5572 2.70292C14.8385 2.40599 14.9965 2.00326 14.9965 1.58333C14.9965 1.16341 14.8385 0.76068 14.5572 0.463748C14.276 0.166815 13.8946 0 13.4968 0H2.9993C2.20383 0 1.44095 0.33363 0.878474 0.927495C0.315996 1.52136 0 2.32681 0 3.16667V34.8333C0 35.6732 0.315996 36.4786 0.878474 37.0725C1.44095 37.6664 2.20383 38 2.9993 38H13.4968C13.8946 38 14.276 37.8332 14.5572 37.5363C14.8385 37.2393 14.9965 36.8366 14.9965 36.4167C14.9965 35.9967 14.8385 35.594 14.5572 35.2971C14.276 35.0001 13.8946 34.8333 13.4968 34.8333Z" fill="#0E5FB0"/>
</svg>
