<svg width="37" height="33" viewBox="0 0 37 33" fill="none" xmlns="http://www.w3.org/2000/svg">
<path d="M34.1094 11.8594C34.1094 15.8039 31.5512 19.8516 26.507 23.8992C24.2166 25.7357 21.7226 27.3597 19.0637 28.7461C18.8909 28.8307 18.6971 28.8751 18.5 28.8751C18.3029 28.8751 18.1091 28.8307 17.9363 28.7461C17.3148 28.4367 2.89062 21.1277 2.89062 11.8594C2.89063 10.2361 3.46329 8.6539 4.52751 7.33701C5.59173 6.02011 7.09354 5.03524 8.82021 4.5219C10.5469 4.00857 12.4109 3.99279 14.1482 4.47681C15.8855 4.96083 17.408 5.9201 18.5 7.21875C19.592 5.9201 21.1145 4.96083 22.8518 4.47681C24.5891 3.99279 26.4531 4.00857 28.1798 4.5219C29.9065 5.03524 31.4083 6.02011 32.4725 7.33701C33.5367 8.6539 34.1094 10.2361 34.1094 11.8594Z" fill="#0055AA"/>
</svg>
